<?xml version="1.0" encoding="UTF-8"?> <svg xmlns="http://www.w3.org/2000/svg" xmlns:xlink="http://www.w3.org/1999/xlink" id="Group_290" data-name="Group 290" width="210.841" height="53.981" viewBox="0 0 210.841 53.981"><defs><clipPath id="clip-path"><rect id="Rectangle_105" data-name="Rectangle 105" width="210.841" height="53.981" fill="none"></rect></clipPath></defs><g id="Group_251" data-name="Group 251" clip-path="url(#clip-path)"><path id="Path_299" data-name="Path 299" d="M.148,10.73A.148.148,0,0,0,0,10.878V39.786a.148.148,0,0,0,.148.148h3.6a.145.145,0,0,0,.145-.145V10.878a.145.145,0,0,0-.141-.148H.148Z" transform="translate(0 -7.033)" fill="#fd6a23" fill-rule="evenodd"></path><path id="Path_300" data-name="Path 300" d="M31.428,32.19a.148.148,0,0,0-.148.145V53.853a.148.148,0,0,0,.148.148h3.6a.145.145,0,0,0,.145-.145V32.335a.145.145,0,0,0-.145-.145Z" transform="translate(-20.504 -21.1)" fill="#3268ad" fill-rule="evenodd"></path><path id="Path_301" data-name="Path 301" d="M31.428,32.19a.148.148,0,0,0-.148.145V53.853a.148.148,0,0,0,.148.148h3.6a.145.145,0,0,0,.145-.145V32.335a.145.145,0,0,0-.145-.145Z" transform="translate(-20.504 -21.1)" fill="#057dc1" fill-rule="evenodd"></path><path id="Path_302" data-name="Path 302" d="M94.725,21.46a.145.145,0,0,0-.145.145V46.819a.145.145,0,0,0,.141.148h3.607a.148.148,0,0,0,.148-.148V21.6a.145.145,0,0,0-.145-.145H94.725Z" transform="translate(-61.996 -14.067)" fill="#fd1415" fill-rule="evenodd"></path><path id="Path_303" data-name="Path 303" d="M63.085,0a.145.145,0,0,0-.145.145V32.753a.145.145,0,0,0,.141.148h3.61a.145.145,0,0,0,.145-.145V.148A.145.145,0,0,0,66.7,0h-3.61Z" transform="translate(-41.256)" fill="#4a7922" fill-rule="evenodd"></path><path id="Path_304" data-name="Path 304" d="M154.582,48.725a2.068,2.068,0,0,0,.3,1.168,2.254,2.254,0,0,0,.813.754,5.125,5.125,0,0,0,1.175.451q.689.186,1.378.345.982.217,1.857.482a5.621,5.621,0,0,1,1.619.8,3.88,3.88,0,0,1,1.2,1.437,5.226,5.226,0,0,1,.469,2.346,5.121,5.121,0,0,1-.513,2.332,4.752,4.752,0,0,1-1.443,1.7,6.7,6.7,0,0,1-2.229,1.034,10.737,10.737,0,0,1-2.853.345,13.771,13.771,0,0,1-1.723-.1,11.555,11.555,0,0,1-1.378-.258,9.74,9.74,0,0,1-1.013-.317,6.137,6.137,0,0,1-.689-.314V58.571a14.643,14.643,0,0,0,2.136.689,9.841,9.841,0,0,0,2.332.258,8.3,8.3,0,0,0,1.812-.183,4.686,4.686,0,0,0,1.378-.541,2.557,2.557,0,0,0,.9-.9,2.411,2.411,0,0,0,.314-1.251,2.312,2.312,0,0,0-.286-1.206,2.412,2.412,0,0,0-.772-.785,4.56,4.56,0,0,0-1.109-.524c-.424-.134-.868-.255-1.333-.365-.613-.134-1.23-.293-1.86-.475a6.491,6.491,0,0,1-1.723-.768,3.693,3.693,0,0,1-1.247-1.344A4.433,4.433,0,0,1,151.612,49a5.347,5.347,0,0,1,.493-2.374,4.71,4.71,0,0,1,1.337-1.664,5.77,5.77,0,0,1,1.953-.985,8.268,8.268,0,0,1,2.36-.344,12.35,12.35,0,0,1,2.677.276,13.383,13.383,0,0,1,2.239.689v2.412a17.159,17.159,0,0,0-2.167-.689,10.439,10.439,0,0,0-2.257-.282,6.086,6.086,0,0,0-1.678.2,3.261,3.261,0,0,0-1.14.555,2.174,2.174,0,0,0-.651.841,2.713,2.713,0,0,0-.2,1.071Z" transform="translate(-99.339 -28.598)" fill="#4e4f50"></path><path id="Path_305" data-name="Path 305" d="M206.745,59.446a13.092,13.092,0,0,0,2.567-.231,14.939,14.939,0,0,0,2.312-.651v2.356a9.114,9.114,0,0,1-2.3.723,15.55,15.55,0,0,1-2.942.265,12.485,12.485,0,0,1-3.5-.475,7.291,7.291,0,0,1-2.832-1.537,7.152,7.152,0,0,1-1.874-2.756,11.216,11.216,0,0,1-.689-4.134,11.712,11.712,0,0,1,.655-4.134,8.733,8.733,0,0,1,1.75-2.915,7.13,7.13,0,0,1,2.518-1.754,7.737,7.737,0,0,1,2.97-.586,7.542,7.542,0,0,1,2.725.486,5.554,5.554,0,0,1,2.2,1.526,7.429,7.429,0,0,1,1.485,2.7,12.8,12.8,0,0,1,.537,3.948v.376c0,.1,0,.345-.017.689H200.313a7.059,7.059,0,0,0,.5,2.825,4.943,4.943,0,0,0,1.378,1.881,5.374,5.374,0,0,0,2.036,1.034,9.219,9.219,0,0,0,2.522.345Zm-1.506-13.377h0a4.365,4.365,0,0,0-1.822.382,4.732,4.732,0,0,0-1.471,1.034,5.262,5.262,0,0,0-1.016,1.547,6.062,6.062,0,0,0-.482,1.891h8.892a6.579,6.579,0,0,0-.269-1.912,4.6,4.6,0,0,0-.785-1.543,3.721,3.721,0,0,0-1.275-1.034,3.949,3.949,0,0,0-1.771-.365" transform="translate(-129.447 -28.592)" fill="#4e4f50"></path><path id="Path_306" data-name="Path 306" d="M259.3,46.54h.055a9,9,0,0,1,1.051-1.123A7.007,7.007,0,0,1,261.7,44.5a6.6,6.6,0,0,1,1.561-.61,7.791,7.791,0,0,1,4.086.11,4.6,4.6,0,0,1,1.809,1.058,5.067,5.067,0,0,1,1.213,1.912,8.16,8.16,0,0,1,.448,2.894V61.488h-2.832V50.329a4.863,4.863,0,0,0-.868-3.235,3.18,3.18,0,0,0-2.532-.985,5.455,5.455,0,0,0-2.832.813,7.532,7.532,0,0,0-2.356,2.239V61.5H256.56V44.128h2.191l.548,2.412Z" transform="translate(-168.172 -28.625)" fill="#4e4f50"></path><path id="Path_307" data-name="Path 307" d="M316.009,48.744a2.068,2.068,0,0,0,.3,1.168,2.307,2.307,0,0,0,.813.754,5.221,5.221,0,0,0,1.182.465q.665.186,1.378.345c.655.145,1.271.307,1.857.482a5.614,5.614,0,0,1,1.623.775,3.853,3.853,0,0,1,1.2,1.437,5.227,5.227,0,0,1,.455,2.353,5.167,5.167,0,0,1-.51,2.332,4.731,4.731,0,0,1-1.447,1.7,6.7,6.7,0,0,1-2.229,1.034,10.739,10.739,0,0,1-2.849.345,13.905,13.905,0,0,1-1.722-.1,11.342,11.342,0,0,1-1.378-.258,9.914,9.914,0,0,1-1.034-.317,6.332,6.332,0,0,1-.689-.314V58.591a14.616,14.616,0,0,0,2.133.689,9.843,9.843,0,0,0,2.332.258,8.3,8.3,0,0,0,1.812-.183,4.641,4.641,0,0,0,1.378-.541,2.545,2.545,0,0,0,.9-.9,2.459,2.459,0,0,0,.314-1.251,2.28,2.28,0,0,0-.289-1.206,2.363,2.363,0,0,0-.772-.785,4.528,4.528,0,0,0-1.12-.513c-.424-.134-.872-.255-1.337-.365q-.913-.2-1.857-.475a6.491,6.491,0,0,1-1.723-.768,3.662,3.662,0,0,1-1.247-1.344,4.432,4.432,0,0,1-.475-2.184,5.3,5.3,0,0,1,.493-2.374,4.7,4.7,0,0,1,1.333-1.664A5.79,5.79,0,0,1,316.791,44a8.233,8.233,0,0,1,2.356-.345,12.308,12.308,0,0,1,2.677.276,13.287,13.287,0,0,1,2.239.689v2.412a17.161,17.161,0,0,0-2.167-.689,10.4,10.4,0,0,0-2.257-.282,6.061,6.061,0,0,0-1.674.2,3.231,3.231,0,0,0-1.14.555,2.113,2.113,0,0,0-.651.841,2.708,2.708,0,0,0-.207,1.071Z" transform="translate(-205.142 -28.618)" fill="#4e4f50"></path><path id="Path_308" data-name="Path 308" d="M368.215,59.479a13.119,13.119,0,0,0,2.567-.231,15.2,15.2,0,0,0,2.312-.651v2.356a9.113,9.113,0,0,1-2.3.723,15.614,15.614,0,0,1-2.946.265,12.461,12.461,0,0,1-3.5-.475,7.235,7.235,0,0,1-2.832-1.537,7.119,7.119,0,0,1-1.874-2.756,11.21,11.21,0,0,1-.689-4.134,11.716,11.716,0,0,1,.658-4.134,8.671,8.671,0,0,1,1.767-2.9,7.118,7.118,0,0,1,2.515-1.754,7.756,7.756,0,0,1,2.973-.586,7.542,7.542,0,0,1,2.725.486,5.543,5.543,0,0,1,2.195,1.526,7.428,7.428,0,0,1,1.468,2.684,12.7,12.7,0,0,1,.527,3.948v.376q0,.155-.021.689H361.772a7.119,7.119,0,0,0,.5,2.825,4.942,4.942,0,0,0,1.378,1.881,5.409,5.409,0,0,0,2.036,1.034,9.27,9.27,0,0,0,2.525.345ZM366.72,46.1h0a4.354,4.354,0,0,0-1.822.382,4.7,4.7,0,0,0-1.471,1.034,5.344,5.344,0,0,0-1.034,1.547,6.062,6.062,0,0,0-.479,1.891H370.8a6.58,6.58,0,0,0-.269-1.912,4.658,4.658,0,0,0-.786-1.543,3.734,3.734,0,0,0-1.278-1.034,3.946,3.946,0,0,0-1.757-.372Z" transform="translate(-235.289 -28.625)" fill="#4e4f50"></path><path id="Path_309" data-name="Path 309" d="M415.089,36.581a13.051,13.051,0,0,1,.345-3.207,10.058,10.058,0,0,1,.94-2.439,6.714,6.714,0,0,1,1.378-1.747,7.964,7.964,0,0,1,1.626-1.14,6.886,6.886,0,0,1,1.723-.63,7.605,7.605,0,0,1,1.636-.193,6.623,6.623,0,0,1,2.756.531,6.433,6.433,0,0,1,2.1,1.554h.055V18.58h2.832V45.042h-2.139l-.582-1.936h-.076a8.906,8.906,0,0,1-.765.851,5.264,5.264,0,0,1-1.034.775,5.705,5.705,0,0,1-1.378.558,6.889,6.889,0,0,1-1.8.21,8.314,8.314,0,0,1-2.794-.486,6.438,6.438,0,0,1-2.449-1.554A7.886,7.886,0,0,1,415.74,40.7a11.4,11.4,0,0,1-.658-4.134Zm2.963-.038h0a10.032,10.032,0,0,0,.345,2.715,6.091,6.091,0,0,0,.978,2.067,4.317,4.317,0,0,0,1.571,1.306,4.767,4.767,0,0,0,2.139.458,5.257,5.257,0,0,0,1.612-.248,5.764,5.764,0,0,0,2.295-1.378,5.522,5.522,0,0,0,.648-.758V31.627a6.923,6.923,0,0,0-2.029-1.433,5.806,5.806,0,0,0-2.487-.537,5.26,5.26,0,0,0-1.688.3,4.135,4.135,0,0,0-1.647,1.089,6.036,6.036,0,0,0-1.251,2.108,9.828,9.828,0,0,0-.493,3.39Z" transform="translate(-272.079 -12.179)" fill="#4e4f50"></path><path id="Path_310" data-name="Path 310" d="M486.514,59.576h-.072a5.633,5.633,0,0,1-.885.868,6.3,6.3,0,0,1-1.227.768,7.419,7.419,0,0,1-1.516.541,7.529,7.529,0,0,1-1.754.2,6.793,6.793,0,0,1-2.312-.376,4.876,4.876,0,0,1-2.99-2.859,6.285,6.285,0,0,1-.42-2.356,5.56,5.56,0,0,1,.465-2.322,4.945,4.945,0,0,1,1.309-1.723,5.859,5.859,0,0,1,2.019-1.1,8.3,8.3,0,0,1,2.6-.386,14.785,14.785,0,0,1,2.5.238,13.421,13.421,0,0,1,2.046.548h.072V50.415a8.009,8.009,0,0,0-.09-1.261,3.2,3.2,0,0,0-.314-.968,3.684,3.684,0,0,0-1.516-1.454,5.858,5.858,0,0,0-2.815-.575,11.848,11.848,0,0,0-2.477.248,15.745,15.745,0,0,0-2.312.689V44.717a7.621,7.621,0,0,1,1.033-.41,12.677,12.677,0,0,1,1.251-.345,13.77,13.77,0,0,1,1.378-.21c.486-.048.972-.072,1.461-.072a8.763,8.763,0,0,1,4.3.934,5.547,5.547,0,0,1,2.412,2.467,4.975,4.975,0,0,1,.393,1.288,9.266,9.266,0,0,1,.117,1.543V61.495h-2.374l-.313-1.919Zm-.145-5.7h0q-.779-.217-1.857-.42a14.015,14.015,0,0,0-2.363-.22,4.607,4.607,0,0,0-2.822.768,2.756,2.756,0,0,0-1.006,2.36,3.555,3.555,0,0,0,.255,1.406,2.7,2.7,0,0,0,.689,1,2.867,2.867,0,0,0,1.054.586,4.334,4.334,0,0,0,1.3.193,5.282,5.282,0,0,0,1.691-.265,7.31,7.31,0,0,0,1.378-.63,7.7,7.7,0,0,0,1.034-.734c.286-.241.493-.431.627-.565V53.874Z" transform="translate(-311.579 -28.632)" fill="#4e4f50"></path><path id="Path_311" data-name="Path 311" d="M538.024,53.352a5.839,5.839,0,0,1-1.116.272,12.138,12.138,0,0,1-1.792.148,7.493,7.493,0,0,1-2.374-.345,4.514,4.514,0,0,1-1.657-.961,3.954,3.954,0,0,1-1-1.526,5.8,5.8,0,0,1-.327-1.995V38.383H526.4V35.954h3.345V31.2h2.832v4.754h5.192v2.412h-5.192V48.508a3.517,3.517,0,0,0,.172,1.116,2.254,2.254,0,0,0,.551.885,2.575,2.575,0,0,0,.958.586,4.234,4.234,0,0,0,1.409.21,8.218,8.218,0,0,0,1.2-.093,8.7,8.7,0,0,0,1.161-.238Z" transform="translate(-345.049 -20.451)" fill="#4e4f50"></path><path id="Path_312" data-name="Path 312" d="M581.594,59.55h-.072a5.684,5.684,0,0,1-.879.868,6.389,6.389,0,0,1-1.223.768,7.4,7.4,0,0,1-3.273.741,6.793,6.793,0,0,1-2.312-.376,4.991,4.991,0,0,1-1.809-1.1,4.928,4.928,0,0,1-1.178-1.764,6.2,6.2,0,0,1-.42-2.356,5.558,5.558,0,0,1,.465-2.322,4.9,4.9,0,0,1,1.306-1.723,5.9,5.9,0,0,1,2.019-1.1,8.3,8.3,0,0,1,2.608-.4,14.751,14.751,0,0,1,2.5.238,13.422,13.422,0,0,1,2.046.548h.072V50.375a7.6,7.6,0,0,0-.09-1.261,3.29,3.29,0,0,0-.31-.968,3.7,3.7,0,0,0-1.519-1.454,5.858,5.858,0,0,0-2.815-.575,11.817,11.817,0,0,0-2.474.248,15.485,15.485,0,0,0-2.312.689V44.677a7.519,7.519,0,0,1,1.033-.41,12.527,12.527,0,0,1,1.254-.345,13.478,13.478,0,0,1,1.378-.21c.486-.048.975-.072,1.461-.072a8.771,8.771,0,0,1,4.306.934,5.54,5.54,0,0,1,2.411,2.467,4.97,4.97,0,0,1,.393,1.288,9.259,9.259,0,0,1,.12,1.543v11.6h-2.377l-.31-1.919Zm-.148-5.7h0c-.52-.145-1.14-.286-1.853-.42a14.126,14.126,0,0,0-2.367-.22,4.6,4.6,0,0,0-2.818.768,2.772,2.772,0,0,0-1.034,2.36,3.621,3.621,0,0,0,.255,1.406,2.7,2.7,0,0,0,.689,1,2.891,2.891,0,0,0,1.054.586,4.334,4.334,0,0,0,1.3.193,5.263,5.263,0,0,0,1.692-.265,7.237,7.237,0,0,0,1.378-.63,7.511,7.511,0,0,0,1.034-.734c.286-.241.5-.431.627-.565V53.848Z" transform="translate(-373.909 -28.606)" fill="#4e4f50"></path><path id="Path_313" data-name="Path 313" d="M205.585,131.417V130.6h5.65l-4.651,7.614h4.523v.872H205.02l4.637-7.648h-4.024Z" transform="translate(-134.388 -85.607)" fill="#4e4f50"></path><path id="Path_314" data-name="Path 314" d="M250.746,131.387v-.848H246.34v8.492h4.406v-.844h-3.5v-3.359h3.376v-.885h-3.376v-2.556Z" transform="translate(-161.473 -85.568)" fill="#4e4f50"></path><path id="Path_315" data-name="Path 315" d="M283.407,138.335h-.927V129.46l6.652,6.969v-6.566h.906v8.8l-6.635-6.632Z" transform="translate(-185.163 -84.86)" fill="#4e4f50"></path><path id="Path_316" data-name="Path 316" d="M327.8,130.61l3.445,8.985,3.452-8.985h-1l-2.446,6.363-2.432-6.363Z" transform="translate(-214.869 -85.613)" fill="#4e4f50"></path><rect id="Rectangle_104" data-name="Rectangle 104" width="0.968" height="8.478" transform="translate(127.879 44.997)" fill="#4e4f50"></rect><path id="Path_317" data-name="Path 317" d="M404.005,138.226h1.034l-3.824-8.906-3.945,8.906h1.058l1.033-2.412h3.617l1.034,2.412Zm-4.293-3.266,1.454-3.421,1.454,3.421Z" transform="translate(-260.406 -84.768)" fill="#4e4f50"></path><circle id="Ellipse_4" data-name="Ellipse 4" cx="0.81" cy="0.81" r="0.81" transform="translate(80.03 48.569)" fill="#4e4f50"></circle><circle id="Ellipse_5" data-name="Ellipse 5" cx="0.81" cy="0.81" r="0.81" transform="translate(92.47 48.569)" fill="#4e4f50"></circle><circle id="Ellipse_6" data-name="Ellipse 6" cx="0.81" cy="0.81" r="0.81" transform="translate(108.425 48.517)" fill="#4e4f50"></circle><circle id="Ellipse_7" data-name="Ellipse 7" cx="0.81" cy="0.81" r="0.81" transform="translate(122.105 48.552)" fill="#4e4f50"></circle><path id="Path_318" data-name="Path 318" d="M387.509,141.75a.81.81,0,1,1-.81-.81.81.81,0,0,1,.81.81" transform="translate(-252.947 -92.385)" fill="#4e4f50"></path><path id="Path_319" data-name="Path 319" d="M160.546,131.332l-2.026-2.012H157.37l-2.026,2.012a1.861,1.861,0,0,0-.5,1.378v5.4h1.085v-2.9h4.051v2.9h1.075v-5.416a1.861,1.861,0,0,0-.5-1.378Zm-.575,2.9h-4.041v-1.454a1.032,1.032,0,0,1,.251-.754l1.723-1.774h.131l1.695,1.771a1.032,1.032,0,0,1,.251.754v1.454Z" transform="translate(-101.497 -84.768)" fill="#4e4f50"></path><path id="Path_320" data-name="Path 320" d="M449.415,135.7H448.33v.52a.8.8,0,0,1-.227.565.689.689,0,0,1-.527.245h-2.484a.688.688,0,0,1-.527-.241.8.8,0,0,1-.227-.562v-5.078a.785.785,0,0,1,.227-.558.689.689,0,0,1,.527-.245h2.484a.689.689,0,0,1,.527.245.817.817,0,0,1,.227.568v.489h1.089V131.3a2.066,2.066,0,0,0-.537-1.437,1.751,1.751,0,0,0-1.354-.586H445.17a1.86,1.86,0,0,0-1.922,1.8c0,.041,0,.082,0,.123v4.933a1.86,1.86,0,0,0,1.8,1.919c.041,0,.082,0,.123,0H447.5a1.86,1.86,0,0,0,1.919-1.8c0-.04,0-.08,0-.119v-.441Zm51.969-6.411v2.577a1.792,1.792,0,0,1-.475.992l-2.012,2.067v3.132h-1.089v-3.132l-2.012-2.067a1.867,1.867,0,0,1-.5-1.33v-2.239h1.061v2.181a.993.993,0,0,0,.251.727l1.623,1.723h.217l1.629-1.743a.993.993,0,0,0,.255-.727V129.27Zm-43.064,1.919a1.86,1.86,0,0,0-1.8-1.919c-.04,0-.08,0-.119,0h-2.632a1.857,1.857,0,0,0-1.919,1.793q0,.063,0,.126v4.933a1.857,1.857,0,0,0,1.793,1.919q.063,0,.126,0H456.4a1.86,1.86,0,0,0,1.919-1.8c0-.04,0-.08,0-.119Zm-1.278,5.581a.69.69,0,0,1-.534.241h-2.846a.707.707,0,0,1-.531-.241.8.8,0,0,1-.224-.558v-5.113a.806.806,0,0,1,.224-.558.71.71,0,0,1,.531-.245h2.846a.689.689,0,0,1,.534.245.8.8,0,0,1,.22.558v5.113A.8.8,0,0,1,457.042,136.787Zm10.473-7.5h-.927l-2.412,2.949h-.124l-2.412-2.949h-.909v8.771h1.089V131.12l1.933,2.3h.73l1.933-2.3v6.938h1.089v-8.771Zm8.348,1.919a1.86,1.86,0,0,0-1.8-1.919q-.059,0-.119,0H469.92v8.771h1.061V134.2h2.949a1.86,1.86,0,0,0,1.919-1.8c0-.041,0-.082,0-.123v-1.075Zm-1.278,1.723a.689.689,0,0,1-.537.241h-3.052v-2.887h3.052a.689.689,0,0,1,.537.241.785.785,0,0,1,.22.555v1.292A.8.8,0,0,1,474.585,132.929Zm9.229-1.63-2.029-2.012h-1.14l-2.026,2.012a1.861,1.861,0,0,0-.5,1.378v5.4h1.071v-2.9h4.055v2.9h1.075V132.66a1.874,1.874,0,0,0-.5-1.378Zm-.575,2.9h-4.048V132.75a1.034,1.034,0,0,1,.255-.761l1.723-1.771h.134l1.692,1.767a1.035,1.035,0,0,1,.255.761V134.2Zm9.646-4.916H491.8v4.506l-4.089-4.506h-.968v8.771h1.089v-6.994l3.962,4.351v2.642h1.089v-8.771Z" transform="translate(-290.543 -84.735)" fill="#4e4f50"></path></g></svg> 